<?xml version="1.0" standalone="no"?>
<!DOCTYPE svg PUBLIC "-//W3C//DTD SVG 20010904//EN"
 "http://www.w3.org/TR/2001/REC-SVG-20010904/DTD/svg10.dtd">
<svg version="1.0" xmlns="http://www.w3.org/2000/svg"
 width="317.000000pt" height="317.000000pt" viewBox="0 0 317.000000 317.000000"
 preserveAspectRatio="xMidYMid meet">
<metadata>
Created by potrace 1.14, written by Peter Selinger 2001-2017
</metadata>
<g transform="translate(0.000000,317.000000) scale(0.100000,-0.100000)"
fill="#000000" stroke="none">
<path d="M475 2779 c-95 -21 -178 -97 -198 -181 -9 -33 -10 -1325 -2 -1338 3
-6 8 -19 10 -31 5 -27 66 -108 82 -109 6 0 13 -4 15 -8 2 -8 202 -132 210
-132 2 0 3 219 3 488 -1 268 2 495 7 504 4 9 4 19 0 22 -9 5 -7 88 2 112 3 8
2 14 -3 14 -8 0 -5 94 4 118 2 6 1 12 -3 12 -10 0 -7 54 3 70 4 6 2 16 -3 23
-5 7 -7 20 -3 29 5 15 14 13 69 -22 35 -22 65 -40 68 -40 3 0 10 -5 17 -10 20
-17 231 -151 257 -163 46 -22 224 -144 228 -157 3 -8 1 -12 -3 -8 -4 4 -26 -6
-48 -22 -23 -17 -45 -30 -49 -30 -5 0 -36 -18 -69 -40 -33 -22 -64 -40 -69
-40 -5 0 -13 -8 -19 -17 -5 -10 -11 -16 -13 -14 -2 2 -38 -16 -80 -40 -63 -36
-78 -49 -79 -69 -3 -66 -4 -827 -1 -841 2 -9 16 -23 30 -30 15 -8 29 -16 32
-19 6 -6 41 -26 85 -49 16 -9 32 -18 35 -21 3 -3 28 -19 55 -35 28 -17 59 -35
70 -42 11 -7 28 -16 38 -19 9 -3 17 -10 17 -15 0 -5 5 -9 10 -9 6 0 35 -16 65
-35 30 -19 55 -31 55 -27 0 4 4 2 8 -4 12 -20 161 -103 203 -114 43 -12 107
-11 124 1 6 4 14 7 18 7 15 1 67 27 67 34 0 5 4 8 10 8 13 0 114 62 118 72 2
4 12 8 22 8 10 0 20 4 22 9 2 5 59 43 128 84 69 42 166 101 217 132 51 30 95
60 98 65 6 9 10 469 5 495 -2 6 -2 14 -1 19 2 9 2 206 1 474 0 82 -4 132 -10
132 -6 0 -50 -27 -100 -59 -49 -33 -98 -62 -109 -66 -12 -3 -21 -11 -21 -16 0
-5 -7 -9 -15 -9 -8 0 -15 -4 -15 -10 0 -5 -6 -10 -14 -10 -7 0 -19 -7 -26 -15
-7 -9 -15 -13 -17 -11 -3 3 -14 -4 -26 -15 -11 -10 -27 -19 -34 -19 -7 0 -13
-5 -13 -11 0 -5 -4 -7 -10 -4 -5 3 -10 1 -10 -4 0 -6 -7 -11 -15 -11 -7 0 -19
-8 -24 -17 -6 -10 -11 -15 -11 -10 0 8 -46 -19 -68 -40 -7 -7 -20 -13 -28 -13
-8 0 -14 -4 -14 -10 0 -5 -4 -10 -10 -10 -12 0 -129 -72 -156 -97 -20 -18 -21
-30 -23 -188 -1 -115 2 -171 10 -176 10 -6 65 26 159 90 14 10 32 20 40 24 8
4 29 16 45 27 17 11 38 23 48 26 9 4 17 11 17 17 0 6 3 7 7 4 3 -4 15 0 25 10
10 9 18 13 18 9 0 -4 10 2 22 14 45 42 48 33 48 -164 l0 -184 -93 -58 c-50
-32 -95 -63 -99 -69 -4 -5 -8 -6 -8 -1 0 5 -10 0 -22 -11 -13 -11 -30 -23 -38
-26 -8 -4 -33 -18 -55 -32 -22 -14 -58 -34 -80 -46 -38 -19 -42 -19 -77 -5
-21 9 -38 21 -38 27 0 5 -4 8 -9 5 -5 -3 -14 1 -21 9 -7 8 -18 15 -25 15 -7 0
-18 7 -25 15 -7 8 -15 13 -19 10 -4 -2 -19 7 -34 21 -14 13 -30 24 -34 24 -5
0 -31 15 -58 32 -28 18 -62 39 -75 46 -67 35 -63 19 -65 279 -1 131 2 249 5
263 4 14 20 32 36 40 16 8 31 18 34 22 3 4 17 13 30 20 62 33 271 161 276 169
3 5 12 9 20 9 8 0 50 22 94 50 44 27 84 50 89 50 6 0 14 6 18 13 9 13 77 55
106 64 9 3 17 9 17 14 0 5 7 9 15 9 8 0 15 5 15 10 0 6 4 10 9 10 5 0 42 20
83 45 40 25 81 48 91 51 9 4 17 10 17 15 0 5 7 9 15 9 9 0 25 9 37 20 12 11
28 20 35 20 7 0 13 5 13 10 0 6 4 10 10 10 5 0 58 29 116 65 59 36 109 65 112
65 3 0 20 11 39 26 18 14 33 22 33 18 0 -4 9 1 19 10 11 10 23 16 28 13 4 -3
8 -323 8 -711 0 -706 2 -741 32 -694 4 7 25 22 46 32 20 11 37 23 37 28 0 4 5
8 11 8 6 0 28 14 49 30 21 17 41 30 44 30 9 0 46 39 46 49 0 5 5 11 11 13 6 2
18 26 27 53 16 45 17 116 16 705 l-1 655 -22 52 c-21 47 -87 117 -107 113 -4
-1 -10 3 -13 9 -17 27 -157 34 -204 10 -12 -6 -98 -59 -192 -116 -93 -57 -177
-108 -185 -113 -8 -5 -60 -37 -115 -71 -55 -34 -113 -70 -130 -79 -76 -43
-221 -135 -227 -145 -4 -5 -8 -7 -8 -3 0 4 -24 -8 -54 -27 l-54 -34 -73 46
c-41 25 -103 65 -139 88 -36 23 -76 48 -89 55 -14 7 -30 17 -35 22 -23 19
-268 168 -277 168 -5 0 -9 4 -9 9 0 5 -10 13 -22 17 -13 4 -25 10 -28 14 -12
17 -295 180 -314 181 -12 1 -32 2 -46 3 -14 1 -38 -1 -55 -5z"/>
</g>
</svg>
